# Blender v2.83.0 OBJ File: ''
# www.blender.org
mtllib cat7_table.mtl
o cat7_table
v 17.000000 8.628253 -17.920685
v 17.000000 -19.389107 -16.180662
v 17.000000 8.609690 -15.920772
v 17.000000 -19.370543 -18.180576
v 18.000000 -19.370543 -18.180576
v 18.000000 -19.389107 -16.180662
v 18.000000 8.609690 -15.920772
v 18.000000 8.628253 -17.920685
v -18.000000 8.312672 16.077848
v -18.000000 -19.704687 17.817871
v -18.000000 8.294108 18.077763
v -18.000000 -19.686123 15.817958
v -17.000000 -19.686123 15.817958
v -17.000000 -19.704687 17.817871
v -17.000000 8.294108 18.077763
v -17.000000 8.312672 16.077848
v -18.000000 8.628253 -17.920685
v -18.000000 -19.389107 -16.180662
v -18.000000 8.609690 -15.920772
v -18.000000 -19.370543 -18.180576
v -17.000000 -19.370543 -18.180576
v -17.000000 -19.389107 -16.180662
v -17.000000 8.609690 -15.920772
v -17.000000 8.628253 -17.920685
v 17.000000 8.312672 16.077848
v 17.000000 -19.704687 17.817871
v 17.000000 8.294108 18.077763
v 17.000000 -19.686123 15.817958
v 18.000000 -19.686123 15.817958
v 18.000000 -19.704687 17.817871
v 18.000000 8.294108 18.077763
v 18.000000 8.312672 16.077848
v -18.000000 10.294022 18.096325
v 18.000000 10.628166 -17.902122
v -18.000000 10.628166 -17.902122
v 18.000000 10.294022 18.096325
v -18.000000 8.294108 18.077763
v -18.000000 8.312672 16.077848
v -18.000000 8.609690 -15.920772
v -18.000000 8.628253 -17.920685
v -17.000000 8.628253 -17.920685
v 17.000000 8.628253 -17.920685
v 18.000000 8.628253 -17.920685
v 17.000000 8.294108 18.077763
v 18.000000 8.294108 18.077763
v -17.000000 8.294108 18.077763
v 18.000000 8.312672 16.077848
v 18.000000 8.609690 -15.920772
v 17.000000 8.312672 16.077848
v 17.000000 8.609690 -15.920772
v -17.000000 8.609690 -15.920772
v -17.000000 8.312672 16.077848
vn -1.0000 -0.0000 0.0000
vn 0.0000 -1.0000 -0.0093
vn 0.0000 -0.0093 1.0000
vn 1.0000 0.0000 0.0000
vn 0.0000 0.0093 -1.0000
vn 0.0000 1.0000 0.0093
vn -0.0947 0.9955 0.0000
usemtl Leg
s off
f 1//1 2//1 3//1
f 2//1 1//1 4//1
f 5//2 2//2 4//2
f 2//2 5//2 6//2
f 7//3 2//3 6//3
f 2//3 7//3 3//3
f 5//4 7//4 6//4
f 7//4 5//4 8//4
f 1//5 5//5 4//5
f 5//5 1//5 8//5
usemtl Leg_2
f 9//1 10//1 11//1
f 10//1 9//1 12//1
f 13//2 10//2 12//2
f 10//2 13//2 14//2
f 15//3 10//3 14//3
f 10//3 15//3 11//3
f 13//4 15//4 14//4
f 15//4 13//4 16//4
f 9//5 13//5 12//5
f 13//5 9//5 16//5
usemtl Leg_3
f 17//1 18//1 19//1
f 18//1 17//1 20//1
f 21//2 18//2 20//2
f 18//2 21//2 22//2
f 23//3 18//3 22//3
f 18//3 23//3 19//3
f 21//4 23//4 22//4
f 23//4 21//4 24//4
f 17//5 21//5 20//5
f 21//5 17//5 24//5
usemtl Leg_4
f 25//1 26//1 27//1
f 26//1 25//1 28//1
f 29//2 26//2 28//2
f 26//2 29//2 30//2
f 31//3 26//3 30//3
f 26//3 31//3 27//3
f 29//4 31//4 30//4
f 31//4 29//4 32//4
f 25//5 29//5 28//5
f 29//5 25//5 32//5
usemtl Table
f 33//6 34//6 35//6
f 34//6 33//6 36//6
f 35//1 37//1 33//1
f 37//1 35//1 38//1
f 38//1 35//1 39//1
f 39//1 35//1 40//1
f 35//5 41//5 40//5
f 41//5 35//5 42//5
f 42//5 35//5 43//5
f 43//5 35//5 34//5
f 36//3 44//3 45//3
f 44//3 36//3 46//3
f 46//3 36//3 37//3
f 37//3 36//3 33//3
f 47//4 36//4 45//4
f 36//4 47//4 34//4
f 34//4 47//4 48//4
f 34//4 48//4 43//4
f 48//2 49//2 50//2
f 49//2 48//2 47//2
f 42//2 51//2 41//2
f 51//2 42//2 52//2
f 52//2 42//2 46//2
f 46//2 42//2 50//2
f 46//2 50//2 44//2
f 44//7 50//7 49//7
f 51//2 38//2 39//2
f 38//2 51//2 52//2
